<svg width="42" height="42" viewBox="0 0 42 42" fill="none" xmlns="http://www.w3.org/2000/svg">
<path d="M31.5875 37.2575C31.4256 37.4197 31.2333 37.5484 31.0216 37.6362C30.8099 37.7241 30.583 37.7693 30.3538 37.7693C30.1246 37.7693 29.8976 37.7241 29.6859 37.6362C29.4742 37.5484 29.2819 37.4197 29.12 37.2575L25.41 33.5475C25.248 33.3855 25.1195 33.1931 25.0318 32.9814C24.9441 32.7697 24.899 32.5429 24.899 32.3137C24.899 32.0846 24.9441 31.8577 25.0318 31.646C25.1195 31.4343 25.248 31.242 25.41 31.08C25.7372 30.7528 26.181 30.5689 26.6438 30.5689C26.8729 30.5689 27.0998 30.6141 27.3115 30.7018C27.5232 30.7894 27.7155 30.918 27.8775 31.08L30.345 33.5475L36.54 27.3525C36.702 27.1905 36.8944 27.0619 37.1061 26.9743C37.3178 26.8866 37.5447 26.8414 37.7738 26.8414C38.0029 26.8414 38.2298 26.8866 38.4415 26.9743C38.6532 27.0619 38.8455 27.1905 39.0075 27.3525C39.1696 27.5145 39.2981 27.7068 39.3857 27.9185C39.4734 28.1302 39.5186 28.3571 39.5186 28.5862C39.5186 28.8154 39.4734 29.0422 39.3857 29.2539C39.2981 29.4656 39.1696 29.658 39.0075 29.82L31.5875 37.2575ZM21.14 35H7.00003C5.07503 35 3.50003 33.425 3.50003 31.5V10.5C3.50003 8.57498 5.07503 6.99998 7.00003 6.99998H35C36.925 6.99998 38.5 8.57498 38.5 10.5V22.19C36.6337 21.3021 34.5729 20.9012 32.5098 21.0247C30.4468 21.1482 28.4485 21.7921 26.7014 22.8962C24.9543 24.0004 23.5152 25.529 22.5183 27.3394C21.5214 29.1498 20.999 31.1832 21 33.25C21 33.845 21.0525 34.4225 21.14 35ZM20.0725 22.1725C20.6325 22.5225 21.3675 22.5225 21.9275 22.1725L34.3 14.4375C34.4755 14.339 34.6292 14.2059 34.7517 14.0463C34.8743 13.8867 34.9632 13.7038 35.013 13.5089C35.0629 13.3139 35.0727 13.1109 35.0418 12.912C35.0109 12.7132 34.9399 12.5227 34.8333 12.352C34.7266 12.1814 34.5865 12.0341 34.4213 11.9192C34.2561 11.8043 34.0693 11.7241 33.8722 11.6835C33.6751 11.6429 33.4718 11.6427 33.2746 11.6829C33.0774 11.7231 32.8905 11.8029 32.725 11.9175L21 19.25L9.27503 11.9175C9.10959 11.8029 8.92263 11.7231 8.72545 11.6829C8.52828 11.6427 8.32499 11.6429 8.1279 11.6835C7.93081 11.7241 7.744 11.8043 7.5788 11.9192C7.4136 12.0341 7.27343 12.1814 7.16677 12.352C7.06012 12.5227 6.9892 12.7132 6.9583 12.912C6.92741 13.1109 6.93719 13.3139 6.98704 13.5089C7.03689 13.7038 7.12578 13.8867 7.24834 14.0463C7.37089 14.2059 7.52455 14.339 7.70003 14.4375L20.0725 22.1725Z" fill="#222222"/>
</svg>
