<svg width="42" height="42" viewBox="0 0 42 42" fill="none" xmlns="http://www.w3.org/2000/svg">
<path d="M30.5 14H34C34.4642 14 34.9093 14.1844 35.2375 14.5126C35.5657 14.8408 35.75 15.2859 35.75 15.75V36.75C35.75 37.2141 35.5657 37.6593 35.2375 37.9874C34.9093 38.3156 34.4642 38.5 34 38.5H6.00003C5.5359 38.5 5.09078 38.3156 4.76259 37.9874C4.4344 37.6593 4.25003 37.2141 4.25003 36.75V15.75C4.25003 15.2859 4.4344 14.8408 4.76259 14.5126C5.09078 14.1844 5.5359 14 6.00003 14H9.50003V12.25C9.50003 9.46523 10.6063 6.79452 12.5754 4.82539C14.5445 2.85625 17.2153 1.75001 20 1.75001C22.7848 1.75001 25.4555 2.85625 27.4247 4.82539C29.3938 6.79452 30.5 9.46523 30.5 12.25V14ZM27 14V12.25C27 10.3935 26.2625 8.61301 24.9498 7.30026C23.637 5.9875 21.8565 5.25001 20 5.25001C18.1435 5.25001 16.363 5.9875 15.0503 7.30026C13.7375 8.61301 13 10.3935 13 12.25V14H27ZM18.25 24.5V28H21.75V24.5H18.25ZM11.25 24.5V28H14.75V24.5H11.25ZM25.25 24.5V28H28.75V24.5H25.25Z" fill="#222222"/>
</svg>
