<svg width="42" height="42" viewBox="0 0 42 42" fill="none" xmlns="http://www.w3.org/2000/svg">
<path d="M27.2869 5.29758C25.6906 3.5741 23.4609 2.625 21 2.625C18.5259 2.625 16.289 3.56836 14.7 5.28117C13.0938 7.01285 12.3113 9.36633 12.495 11.9077C12.8592 16.9214 16.6745 21 21 21C25.3255 21 29.1342 16.9222 29.5042 11.9093C29.6904 9.39094 28.9029 7.04238 27.2869 5.29758ZM35.4375 39.375H6.56251C6.18456 39.3799 5.81027 39.3005 5.46687 39.1426C5.12347 38.9846 4.8196 38.7521 4.57736 38.462C4.04415 37.8246 3.82923 36.9543 3.98837 36.0741C4.68071 32.2334 6.84142 29.0071 10.2375 26.7422C13.2546 24.7316 17.0765 23.625 21 23.625C24.9236 23.625 28.7454 24.7324 31.7625 26.7422C35.1586 29.0063 37.3193 32.2325 38.0117 36.0732C38.1708 36.9534 37.9559 37.8238 37.4227 38.4612C37.1805 38.7515 36.8767 38.9841 36.5333 39.1422C36.1899 39.3003 35.8155 39.3798 35.4375 39.375Z" fill="black"/>
</svg>
